<svg width="36" height="36" viewBox="0 0 36 36" fill="none" xmlns="http://www.w3.org/2000/svg">
<rect width="36" height="36" fill="url(#paint0_linear_8_2)"/>
<path d="M6.5918 16.168C6.6276 15.8132 6.72363 15.5169 6.87988 15.2793C7.03613 15.0417 7.22982 14.8529 7.46094 14.7129C7.69206 14.5697 7.94922 14.4688 8.23242 14.4102C8.51562 14.3516 8.80208 14.3223 9.0918 14.3223C9.32943 14.3223 9.56217 14.332 9.79004 14.3516C10.0179 14.3711 10.2279 14.3939 10.4199 14.4199C10.612 14.446 10.778 14.472 10.918 14.498C11.0579 14.5241 11.1605 14.5436 11.2256 14.5566C11.2646 14.5664 11.2842 14.5843 11.2842 14.6104C11.2842 14.6169 11.2809 14.6364 11.2744 14.6689L11.2012 15.0205C11.1947 15.0433 11.1849 15.0579 11.1719 15.0645C11.1621 15.0677 11.1523 15.0693 11.1426 15.0693C10.9993 15.0693 10.8757 15.0938 10.7715 15.1426C10.6673 15.1914 10.5811 15.2598 10.5127 15.3477C10.4443 15.4355 10.3923 15.5397 10.3564 15.6602C10.3206 15.7806 10.2962 15.9108 10.2832 16.0508L9.99023 19.6006C9.96419 19.887 9.89095 20.1572 9.77051 20.4111C9.65007 20.665 9.48242 20.8864 9.26758 21.0752C9.05273 21.264 8.78906 21.4137 8.47656 21.5244C8.16406 21.6351 7.80599 21.6904 7.40234 21.6904C7.13216 21.6904 6.87174 21.6774 6.62109 21.6514C6.37044 21.6253 6.14258 21.5944 5.9375 21.5586C5.73242 21.5228 5.55501 21.4886 5.40527 21.4561C5.25879 21.4202 5.15299 21.3942 5.08789 21.3779C5.04883 21.3682 5.0293 21.3503 5.0293 21.3242C5.0293 21.321 5.03255 21.3031 5.03906 21.2705L5.12207 20.8994C5.12858 20.8766 5.13672 20.8636 5.14648 20.8604C5.15951 20.8538 5.1709 20.8506 5.18066 20.8506C5.32389 20.8506 5.45573 20.8294 5.57617 20.7871C5.69987 20.7448 5.80729 20.6748 5.89844 20.5771C5.98958 20.4795 6.06445 20.3525 6.12305 20.1963C6.1849 20.04 6.22721 19.848 6.25 19.6201L6.5918 16.168ZM15.1611 17.9746C15.1611 18.375 15.1774 18.7217 15.21 19.0146C15.2425 19.3044 15.2848 19.5518 15.3369 19.7568C15.3923 19.9587 15.4557 20.123 15.5273 20.25C15.6022 20.3737 15.6787 20.4714 15.7568 20.543C15.835 20.6113 15.9131 20.6585 15.9912 20.6846C16.0726 20.7074 16.1491 20.7188 16.2207 20.7188C16.3021 20.7188 16.3753 20.709 16.4404 20.6895C16.5055 20.6667 16.5641 20.6423 16.6162 20.6162C16.6683 20.5869 16.7106 20.5625 16.7432 20.543C16.779 20.5202 16.8066 20.5088 16.8262 20.5088C16.8522 20.5088 16.875 20.5234 16.8945 20.5527L17.1045 20.8848C17.1143 20.9043 17.1191 20.9206 17.1191 20.9336C17.1191 20.9499 17.1126 20.9645 17.0996 20.9775C17.0866 20.9873 17.0752 20.9971 17.0654 21.0068C16.9645 21.085 16.8359 21.1647 16.6797 21.2461C16.5234 21.3275 16.3444 21.4007 16.1426 21.4658C15.944 21.5309 15.7243 21.5846 15.4834 21.627C15.2425 21.6693 14.9886 21.6904 14.7217 21.6904C14.4775 21.6904 14.2269 21.666 13.9697 21.6172C13.7158 21.5716 13.4684 21.4935 13.2275 21.3828C12.9867 21.2689 12.7588 21.1191 12.5439 20.9336C12.3324 20.748 12.1468 20.5186 11.9873 20.2451C11.8278 19.9684 11.7008 19.6445 11.6064 19.2734C11.5153 18.8991 11.4697 18.4661 11.4697 17.9746C11.4697 17.4831 11.5153 17.0518 11.6064 16.6807C11.7008 16.3063 11.8278 15.9824 11.9873 15.709C12.1468 15.4323 12.3324 15.2012 12.5439 15.0156C12.7588 14.8301 12.9867 14.682 13.2275 14.5713C13.4684 14.4574 13.7158 14.3776 13.9697 14.332C14.2269 14.2832 14.4775 14.2588 14.7217 14.2588C14.9886 14.2588 15.2425 14.2799 15.4834 14.3223C15.7243 14.3646 15.944 14.4183 16.1426 14.4834C16.3444 14.5485 16.5234 14.6217 16.6797 14.7031C16.8359 14.7845 16.9645 14.8643 17.0654 14.9424C17.0752 14.9521 17.0866 14.9635 17.0996 14.9766C17.1126 14.9863 17.1191 14.9993 17.1191 15.0156C17.1191 15.0286 17.1143 15.0449 17.1045 15.0645L16.8945 15.3965C16.875 15.4258 16.8522 15.4404 16.8262 15.4404C16.8066 15.4404 16.779 15.4307 16.7432 15.4111C16.7106 15.3883 16.6683 15.3639 16.6162 15.3379C16.5641 15.3086 16.5055 15.2842 16.4404 15.2646C16.3753 15.2419 16.3021 15.2305 16.2207 15.2305C16.1491 15.2305 16.0726 15.2435 15.9912 15.2695C15.9131 15.2923 15.835 15.3395 15.7568 15.4111C15.6787 15.4795 15.6022 15.5771 15.5273 15.7041C15.4557 15.8278 15.3923 15.9922 15.3369 16.1973C15.2848 16.3991 15.2425 16.6465 15.21 16.9395C15.1774 17.2292 15.1611 17.5742 15.1611 17.9746ZM22.1338 20.1719C22.0101 20.2402 21.8831 20.2972 21.7529 20.3428C21.626 20.3883 21.4941 20.4258 21.3574 20.4551V20.8213C21.3574 20.9255 21.346 21.0199 21.3232 21.1045C21.3005 21.1859 21.2598 21.2559 21.2012 21.3145C21.1458 21.373 21.071 21.4186 20.9766 21.4512C20.8854 21.4837 20.7699 21.5 20.6299 21.5H18.4668C18.3105 21.5 18.1836 21.4854 18.0859 21.4561C17.9883 21.4268 17.9118 21.3844 17.8564 21.3291C17.8011 21.2738 17.7637 21.2038 17.7441 21.1191C17.7246 21.0345 17.7148 20.9352 17.7148 20.8213V15.1719C17.7148 15.0579 17.7246 14.9587 17.7441 14.874C17.7637 14.7894 17.8011 14.7194 17.8564 14.6641C17.9118 14.6055 17.9883 14.5615 18.0859 14.5322C18.1836 14.5029 18.3105 14.4883 18.4668 14.4883H20.6445C20.8789 14.4883 21.1084 14.5078 21.333 14.5469C21.5609 14.5859 21.7757 14.6494 21.9775 14.7373C22.1826 14.8219 22.3698 14.9359 22.5391 15.0791C22.7116 15.2223 22.8597 15.3997 22.9834 15.6113C23.1104 15.8197 23.208 16.0638 23.2764 16.3438C23.348 16.6237 23.3838 16.946 23.3838 17.3105C23.3838 17.623 23.3643 17.9062 23.3252 18.1602C23.2861 18.4141 23.2324 18.6436 23.1641 18.8486C23.0957 19.0537 23.0127 19.236 22.915 19.3955C22.8206 19.5518 22.7148 19.6901 22.5977 19.8105L23.5742 21.0996C23.6068 21.1452 23.623 21.1891 23.623 21.2314C23.623 21.2803 23.6051 21.3226 23.5693 21.3584C23.5368 21.3942 23.501 21.4235 23.4619 21.4463L23.1689 21.6172C23.1462 21.6302 23.1217 21.64 23.0957 21.6465C23.0729 21.6562 23.0485 21.6611 23.0225 21.6611C22.9867 21.6611 22.9508 21.6497 22.915 21.627C22.8792 21.6042 22.8467 21.5651 22.8174 21.5098L22.1338 20.1719ZM22.6953 17.3984C22.6953 17.1055 22.6693 16.8353 22.6172 16.5879C22.5651 16.3405 22.4854 16.1224 22.3779 15.9336C22.2705 15.7448 22.1322 15.5885 21.9629 15.4648C21.7936 15.3411 21.5918 15.2565 21.3574 15.2109V19.8154C21.5918 19.7633 21.7936 19.6689 21.9629 19.5322C22.1322 19.3923 22.2705 19.2181 22.3779 19.0098C22.4854 18.8014 22.5651 18.5622 22.6172 18.292C22.6693 18.0186 22.6953 17.7207 22.6953 17.3984ZM24.1699 15.1719C24.1699 15.0579 24.1797 14.9587 24.1992 14.874C24.2188 14.7894 24.2562 14.7194 24.3115 14.6641C24.3669 14.6055 24.4434 14.5615 24.541 14.5322C24.6387 14.5029 24.7656 14.4883 24.9219 14.4883H27.0996C27.3242 14.4883 27.5472 14.5029 27.7686 14.5322C27.9899 14.5583 28.2015 14.6038 28.4033 14.6689C28.6084 14.734 28.7972 14.8187 28.9697 14.9229C29.1455 15.027 29.2969 15.1572 29.4238 15.3135C29.554 15.4665 29.6549 15.6471 29.7266 15.8555C29.8014 16.0605 29.8389 16.2982 29.8389 16.5684C29.8389 16.9688 29.7835 17.3073 29.6729 17.584C29.5654 17.8574 29.4189 18.0837 29.2334 18.2627C29.0479 18.4417 28.8314 18.5785 28.584 18.6729C28.3398 18.7673 28.0827 18.8356 27.8125 18.8779V20.709C27.8125 20.7839 27.806 20.8669 27.793 20.958C27.7799 21.0492 27.7474 21.1354 27.6953 21.2168C27.6432 21.2949 27.5635 21.3617 27.4561 21.417C27.3486 21.4723 27.2005 21.5 27.0117 21.5H24.9219C24.7656 21.5 24.6387 21.4854 24.541 21.4561C24.4434 21.4268 24.3669 21.3844 24.3115 21.3291C24.2562 21.2738 24.2188 21.2038 24.1992 21.1191C24.1797 21.0345 24.1699 20.9352 24.1699 20.8213V15.1719ZM29.1504 16.6416C29.1504 16.4463 29.1243 16.2673 29.0723 16.1045C29.0202 15.9385 28.9404 15.7936 28.833 15.6699C28.7256 15.5462 28.5872 15.4437 28.418 15.3623C28.2487 15.2809 28.0469 15.2256 27.8125 15.1963V18.2285C28.0469 18.1927 28.2487 18.1276 28.418 18.0332C28.5872 17.9388 28.7256 17.8216 28.833 17.6816C28.9404 17.5417 29.0202 17.3838 29.0723 17.208C29.1243 17.029 29.1504 16.8402 29.1504 16.6416Z" fill="white"/>
<defs>
<linearGradient id="paint0_linear_8_2" x1="18" y1="0" x2="18" y2="36" gradientUnits="userSpaceOnUse">
<stop stop-color="#7168FF"/>
<stop offset="1" stop-color="#003F6C"/>
</linearGradient>
</defs>
</svg>
